<?xml version="1.0" encoding="UTF-8" standalone="no"?>
<!-- Created with Inkscape (http://www.inkscape.org/) -->

<svg
   width="50.035728mm"
   height="93.416161mm"
   viewBox="0 0 50.035728 93.416161"
   version="1.1"
   id="svg1"
   inkscape:version="1.3 (0e150ed6c4, 2023-07-21)"
   sodipodi:docname="glue.svg"
   inkscape:export-filename="glue.png"
   inkscape:export-xdpi="960"
   inkscape:export-ydpi="960"
   xmlns:inkscape="http://www.inkscape.org/namespaces/inkscape"
   xmlns:sodipodi="http://sodipodi.sourceforge.net/DTD/sodipodi-0.dtd"
   xmlns="http://www.w3.org/2000/svg"
   xmlns:svg="http://www.w3.org/2000/svg">
  <sodipodi:namedview
     id="namedview1"
     pagecolor="#505050"
     bordercolor="#eeeeee"
     borderopacity="1"
     inkscape:showpageshadow="0"
     inkscape:pageopacity="0"
     inkscape:pagecheckerboard="0"
     inkscape:deskcolor="#505050"
     inkscape:document-units="mm"
     showgrid="true"
     inkscape:zoom="1"
     inkscape:cx="65.5"
     inkscape:cy="314"
     inkscape:window-width="1908"
     inkscape:window-height="1040"
     inkscape:window-x="0"
     inkscape:window-y="0"
     inkscape:window-maximized="1"
     inkscape:current-layer="layer1">
    <inkscape:grid
       id="grid1"
       units="mm"
       originx="-94.488189"
       originy="-24.883821"
       spacingx="5"
       spacingy="5"
       empcolor="#3fbfff"
       empopacity="0.42352941"
       color="#0099e5"
       opacity="0.21176471"
       empspacing="5"
       dotted="false"
       gridanglex="30"
       gridanglez="30"
       visible="true" />
  </sodipodi:namedview>
  <defs
     id="defs1" />
  <g
     inkscape:label="Layer 1"
     inkscape:groupmode="layer"
     id="layer1"
     transform="translate(-25,-6.5838444)">
    <rect
       style="fill:#e8e8e8;fill-opacity:1;stroke-width:0.221"
       id="rect1"
       width="50.035728"
       height="70"
       x="25"
       y="30.000002"
       ry="9.9999981" />
    <rect
       style="fill:#e5e5e5;fill-opacity:1;stroke-width:0.221"
       id="rect2"
       width="20"
       height="10"
       x="40"
       y="25"
       ry="5" />
    <rect
       style="fill:#ff2a2a;stroke-width:0.240329"
       id="rect3"
       width="23.651457"
       height="10"
       x="38.174271"
       y="19.285831"
       ry="5"
       rx="3.0977242" />
    <path
       id="rect4"
       style="fill:#ff2a2a;stroke-width:0.286604"
       d="m 50.037358,6.5848477 c 1.208512,-0.064387 5.122022,2.9705527 5.122022,9.0264803 v 1.336211 c 0,4.658654 -1.375655,7.314546 -3.223774,7.314546 h -3.329549 c -1.848118,0 -3.128562,-3.499607 -3.25191,-8.156627 l -0.02795,-1.055396 C 45.202845,10.39304 48.89417,6.6457539 50.037358,6.5848477 Z"
       sodipodi:nodetypes="ssssssss" />
    <path
       id="rect6"
       style="fill:#0000ff;fill-opacity:1;stroke-width:0.296936"
       d="m 51.564811,70.454097 c -0.122311,-0.0536 -0.230156,-0.101041 -0.349332,-0.152445 -0.293561,-0.126621 -0.552265,-0.233947 -0.651124,-0.259932 -0.02471,-0.0065 -0.03907,-0.0083 -0.04186,-0.0036 -0.0028,0.0046 0.0064,0.01535 0.02945,0.03307 0.04611,0.03545 0.147515,0.09902 0.320394,0.198438 0.345758,0.198828 0.976126,0.541519 2.016414,1.089339 0.04421,0.02328 0.06714,0.03373 0.07235,0.03411 0.0052,3.72e-4 -0.0069,-0.0095 -0.03256,-0.02739 -0.0514,-0.03569 -0.156785,-0.103033 -0.283187,-0.183452 -0.252802,-0.160837 -0.590654,-0.373829 -0.754476,-0.488342 -0.110581,-0.0773 -0.217202,-0.160088 -0.326078,-0.239779 z" />
    <path
       id="path9"
       style="fill:#0000ff;fill-opacity:1;stroke-width:0.296936"
       d="m 48.002238,68.999923 c 0.01391,-8.32e-4 0.02682,-0.0058 0.04082,-0.0062 0.122815,-0.0038 0.23207,0.0076 0.332797,0.03049 0.100726,0.02292 0.193206,0.05731 0.283186,0.09922 0.179961,0.08382 0.349462,0.19805 0.554489,0.311609 -0.420942,-0.231575 -0.834419,-0.47827 -1.251604,-0.717269 -0.208592,-0.119499 -0.418057,-0.236846 -0.629935,-0.349849 -0.211879,-0.113003 -0.425907,-0.221523 -0.643889,-0.322461 -0.03929,-0.01819 -0.06004,-0.02532 -0.06563,-0.02377 -0.0056,0.0015 0.0037,0.01173 0.0248,0.02894 0.04228,0.03442 0.131404,0.09641 0.238745,0.168982 0.214683,0.145144 0.503793,0.333775 0.643888,0.435632 0.157721,0.11467 0.315318,0.229018 0.472323,0.344682 z" />
    <path
       id="path8"
       style="fill:#ff0000;fill-opacity:1;stroke-width:0.296936"
       d="m 71.692265,69.571981 c -0.09108,-0.01573 -0.181866,-0.03155 -0.273885,-0.04237 -0.123954,-0.01458 -0.248817,-0.02448 -0.374654,-0.02894 -0.125838,-0.0045 -0.252922,-0.0035 -0.380856,0.0036 -0.1488,0.02135 -0.298698,0.03686 -0.448034,0.05529 -0.149337,0.01843 -0.298279,0.03986 -0.444934,0.07286 -0.144237,0.03246 -0.316529,0.08024 -0.502295,0.136943 -0.185767,0.0567 -0.384874,0.12189 -0.582394,0.189652 -0.395039,0.135525 -0.783579,0.280129 -1.046964,0.380856 -0.335191,0.128185 -0.668003,0.262452 -0.998906,0.400492 -0.330902,0.13804 -0.660064,0.280124 -0.98857,0.423747 -0.657012,0.287245 -1.311127,0.581112 -1.969905,0.865063 -0.238071,0.09635 -0.473992,0.198168 -0.711068,0.29714 -0.237077,0.09897 -0.475223,0.195241 -0.717269,0.281119 -0.303033,0.107517 -0.606153,0.205116 -0.908989,0.292489 -0.302836,0.08737 -0.605523,0.164289 -0.908471,0.22996 -0.302949,0.06567 -0.606135,0.120371 -0.909505,0.162781 -0.303371,0.04241 -0.606954,0.07284 -0.911056,0.09043 -0.304102,0.01759 -0.608497,0.02222 -0.913639,0.01344 -0.305142,-0.0088 -0.610765,-0.03097 -0.917257,-0.0677 -0.306492,-0.03673 -0.613757,-0.08777 -0.921907,-0.153995 -0.308151,-0.06622 -0.617473,-0.147668 -0.927592,-0.244947 -0.204649,-0.08045 -0.414377,-0.149563 -0.621668,-0.224275 -0.103646,-0.03736 -0.206658,-0.07597 -0.307991,-0.118339 -0.101334,-0.04237 -0.201135,-0.08835 -0.298173,-0.140044 -0.533674,-0.28427 -1.019233,-0.544365 -1.474846,-0.79375 -0.455613,-0.249384 -0.8812,-0.488239 -1.294494,-0.729671 -0.413295,-0.241432 -0.814397,-0.485795 -1.221115,-0.746207 -0.406717,-0.260413 -0.819336,-0.537033 -1.25522,-0.84336 -0.154805,-0.108792 -0.306027,-0.222117 -0.45837,-0.334346 -0.113296,0.0068 -0.224709,0.0222 -0.33228,0.05168 -0.120779,0.03309 -0.237886,0.07829 -0.352433,0.130741 -0.114547,0.05245 -0.226539,0.112119 -0.335897,0.17415 -0.109358,0.06203 -0.216214,0.12628 -0.321427,0.188102 -0.229661,0.134947 -0.641016,0.397469 -1.044381,0.658358 -0.403365,0.260889 -0.798513,0.520191 -0.995805,0.648539 -0.646993,0.428351 -1.294299,0.863988 -1.948718,1.288294 -0.327209,0.212153 -0.656331,0.421347 -0.988053,0.625801 -0.331722,0.204455 -0.666068,0.404049 -1.004073,0.596346 -0.338006,0.192297 -0.679717,0.377257 -1.025777,0.552938 -0.346061,0.175682 -0.696247,0.342003 -1.052133,0.496611 -0.355885,0.154607 -0.717207,0.297772 -1.084688,0.426847 -0.183741,0.06454 -0.369067,0.125616 -0.556038,0.182935 -0.186972,0.05732 -0.37595,0.110655 -0.566374,0.160197 -0.209243,0.04367 -0.417479,0.09163 -0.626318,0.137459 -0.20884,0.04583 -0.418042,0.08949 -0.628903,0.12454 -0.319488,0.0531 -0.640351,0.09325 -0.962215,0.12144 -0.321863,0.02819 -0.644879,0.04455 -0.967899,0.05064 -0.32302,0.0061 -0.645976,0.0018 -0.968933,-0.01137 -0.322958,-0.01319 -0.645707,-0.03546 -0.967383,-0.06511 l -2.236556,-1.688785 v 6.817155 c 0,5.868975 4.724693,10.593668 10.593668,10.593668 h 21.468974 c 5.868975,0 10.593669,-4.724693 10.593669,-10.593668 z" />
    <path
       id="path7"
       style="fill:#0000ff;fill-opacity:1;stroke-width:0.296936"
       d="m 71.692265,68.173617 c -0.02945,-0.0059 -0.05538,-0.0089 -0.0863,-0.01602 -0.329218,-0.102416 -0.656097,-0.216836 -0.983402,-0.328146 -0.327306,-0.111309 -0.654968,-0.219121 -0.985987,-0.307474 -0.165509,-0.04418 -0.331702,-0.08381 -0.499194,-0.116272 -0.167492,-0.03247 -0.336251,-0.05816 -0.506429,-0.07493 -0.170178,-0.01677 -0.342163,-0.0246 -0.515731,-0.0217 -0.173568,0.0029 -0.348922,0.01685 -0.526583,0.04341 -0.148813,0.03162 -0.298614,0.05817 -0.448034,0.08733 -0.149421,0.02917 -0.298551,0.06088 -0.444934,0.10232 -0.164955,0.0467 -0.327371,0.101339 -0.488859,0.159163 -0.161489,0.05782 -0.321571,0.118736 -0.482142,0.1788 -0.426716,0.15962 -0.849503,0.329609 -1.269173,0.505913 -0.41967,0.176304 -0.836599,0.359235 -1.252636,0.544153 -0.832075,0.369834 -1.660012,0.748465 -2.498039,1.104325 -0.552109,0.215799 -0.976577,0.393791 -1.408183,0.550354 -0.215803,0.07828 -0.433453,0.151642 -0.669727,0.221175 -0.236273,0.06953 -0.491389,0.13568 -0.781864,0.200505 -0.242001,0.05401 -0.484478,0.09943 -0.727087,0.136942 -0.24261,0.03751 -0.485371,0.06704 -0.728121,0.08785 -0.242751,0.02081 -0.485181,0.0333 -0.727604,0.03721 -0.242424,0.0039 -0.484424,-7.68e-4 -0.726054,-0.01395 -0.24163,-0.01318 -0.483102,-0.03515 -0.72347,-0.06563 -0.240369,-0.03048 -0.479663,-0.06985 -0.718303,-0.117822 -0.238639,-0.04797 -0.476692,-0.104352 -0.713135,-0.170015 -0.236443,-0.06566 -0.471604,-0.140205 -0.705383,-0.223759 -0.141587,-0.06123 -0.33211,-0.144808 -0.51108,-0.223243 0.108876,0.07969 0.215497,0.162482 0.326078,0.239779 0.163822,0.114513 0.501674,0.327505 0.754476,0.488342 0.126402,0.08042 0.231785,0.147757 0.283187,0.183452 0.0257,0.01785 0.03776,0.02776 0.03256,0.02739 -0.0052,-3.71e-4 -0.02813,-0.01082 -0.07235,-0.03411 -1.040288,-0.54782 -1.670656,-0.890511 -2.016414,-1.089339 -0.172879,-0.09942 -0.274289,-0.162988 -0.320394,-0.198438 -0.02305,-0.01772 -0.03224,-0.02843 -0.02945,-0.03307 0.0028,-0.0046 0.01714,-0.0029 0.04186,0.0036 0.09886,0.02599 0.357563,0.133311 0.651124,0.259932 0.119176,0.0514 0.227021,0.09884 0.349332,0.152445 -0.192701,-0.141045 -0.386423,-0.280674 -0.577226,-0.424263 -0.562876,-0.42359 -0.806281,-0.621817 -0.93896,-0.730705 -0.13268,-0.108887 -0.154468,-0.128666 -0.273369,-0.194303 -0.1189,-0.06564 -0.335256,-0.177451 -0.856795,-0.471289 -0.521539,-0.293838 -1.348128,-0.769721 -2.688725,-1.563212 -0.141903,-0.04952 -0.259471,-0.09577 -0.364835,-0.135909 -0.105364,-0.04014 -0.19894,-0.07403 -0.293522,-0.09767 -0.09458,-0.02363 -0.190165,-0.03721 -0.299724,-0.03721 -0.109558,5e-6 -0.23263,0.01366 -0.382922,0.04444 -0.125029,0.0256 -0.246697,0.06518 -0.364836,0.114205 -0.118138,0.04903 -0.233218,0.107433 -0.345198,0.171566 -0.223961,0.128264 -0.436031,0.27828 -0.639755,0.417028 -0.32733,0.222932 -0.647092,0.457348 -0.967382,0.690398 -0.320291,0.233049 -0.64128,0.46509 -0.972034,0.683162 -0.634599,0.435944 -1.273105,0.871961 -1.921847,1.291911 -0.32437,0.209975 -0.651159,0.415826 -0.981335,0.615466 -0.330176,0.19964 -0.663994,0.39318 -1.001489,0.578259 -0.337496,0.18508 -0.678933,0.361838 -1.025261,0.528134 -0.346328,0.166295 -0.697525,0.322318 -1.054199,0.465604 -0.356674,0.143286 -0.718739,0.274105 -1.087272,0.390157 -0.184267,0.05803 -0.370074,0.112355 -0.557589,0.162781 -0.187515,0.05043 -0.376971,0.09671 -0.567924,0.13901 -0.211737,0.0353 -0.422654,0.07514 -0.63407,0.112654 -0.211415,0.03752 -0.42311,0.07279 -0.636136,0.09922 -0.332493,0.04125 -0.666986,0.06877 -1.002006,0.0832 -0.335021,0.01443 -0.67039,0.01552 -1.005624,0.0036 -0.335234,-0.01191 -0.670422,-0.03664 -1.003556,-0.07441 -0.02859,-0.0032 -0.0567,-0.0095 -0.08527,-0.01292 v 0.547254 l 2.236556,1.688785 c 0.321676,0.02965 0.644425,0.05192 0.967383,0.06511 0.322957,0.01319 0.645913,0.01746 0.968933,0.01137 0.32302,-0.0061 0.646036,-0.02245 0.967899,-0.05064 0.321864,-0.02819 0.642727,-0.06834 0.962215,-0.12144 0.210861,-0.03504 0.420063,-0.07871 0.628903,-0.12454 0.208839,-0.04583 0.417075,-0.09378 0.626318,-0.137459 0.190424,-0.04954 0.379402,-0.102879 0.566374,-0.160197 0.186971,-0.05732 0.372297,-0.118398 0.556038,-0.182935 0.367481,-0.129075 0.728803,-0.27224 1.084688,-0.426847 0.355886,-0.154608 0.706072,-0.320929 1.052133,-0.496611 0.34606,-0.175681 0.687771,-0.360641 1.025777,-0.552938 0.338005,-0.192297 0.672351,-0.391891 1.004073,-0.596346 0.331722,-0.204454 0.660844,-0.413648 0.988053,-0.625801 0.654419,-0.424306 1.301725,-0.859943 1.948718,-1.288294 0.197292,-0.128348 0.59244,-0.38765 0.995805,-0.648539 0.403365,-0.260889 0.81472,-0.523411 1.044381,-0.658358 0.105213,-0.06182 0.212069,-0.126071 0.321427,-0.188102 0.109358,-0.06203 0.22135,-0.121696 0.335897,-0.17415 0.114547,-0.05245 0.231654,-0.09765 0.352433,-0.130741 0.107571,-0.02947 0.218984,-0.0449 0.33228,-0.05168 -0.157005,-0.115664 -0.314602,-0.230012 -0.472323,-0.344682 -0.140095,-0.101857 -0.429205,-0.290488 -0.643888,-0.435632 -0.107341,-0.07257 -0.196465,-0.134566 -0.238745,-0.168982 -0.02114,-0.01721 -0.03039,-0.02739 -0.0248,-0.02894 0.0056,-0.0015 0.02633,0.0056 0.06563,0.02377 0.217982,0.100938 0.43201,0.209458 0.643889,0.322461 0.211878,0.113003 0.421343,0.23035 0.629935,0.349849 0.417185,0.238999 0.830662,0.485694 1.251604,0.717269 -0.205027,-0.113559 -0.374528,-0.227785 -0.554489,-0.311609 -0.08998,-0.04191 -0.18246,-0.0763 -0.283186,-0.09922 -0.100727,-0.02292 -0.209982,-0.03427 -0.332797,-0.03049 -0.014,4.3e-4 -0.02691,0.0054 -0.04082,0.0062 0.152343,0.112229 0.303565,0.225554 0.45837,0.334346 0.435884,0.306327 0.848503,0.582947 1.25522,0.84336 0.406718,0.260412 0.80782,0.504775 1.221115,0.746207 0.413294,0.241432 0.838881,0.480287 1.294494,0.729671 0.455613,0.249385 0.941172,0.50948 1.474846,0.79375 0.09704,0.05169 0.196839,0.09767 0.298173,0.140044 0.101333,0.04237 0.204345,0.08098 0.307991,0.118339 0.207291,0.07471 0.417019,0.143829 0.621668,0.224275 0.310119,0.09728 0.619441,0.178724 0.927592,0.244947 0.30815,0.06622 0.615415,0.117269 0.921907,0.153995 0.306492,0.03673 0.612115,0.05891 0.917257,0.0677 0.305142,0.0088 0.609537,0.0042 0.913639,-0.01344 0.304102,-0.01759 0.607685,-0.04802 0.911056,-0.09043 0.30337,-0.04241 0.606556,-0.09711 0.909505,-0.162781 0.302948,-0.06567 0.605635,-0.142587 0.908471,-0.22996 0.302836,-0.08737 0.605956,-0.184972 0.908989,-0.292489 0.242046,-0.08588 0.480192,-0.182148 0.717269,-0.281119 0.237076,-0.09897 0.472997,-0.200787 0.711068,-0.29714 0.658778,-0.283951 1.312893,-0.577818 1.969905,-0.865063 0.328506,-0.143623 0.657668,-0.285707 0.98857,-0.423747 0.330903,-0.13804 0.663715,-0.272307 0.998906,-0.400492 0.263385,-0.100727 0.651925,-0.245331 1.046964,-0.380856 0.19752,-0.06776 0.396627,-0.132953 0.582394,-0.189652 0.185766,-0.0567 0.358058,-0.104482 0.502295,-0.136943 0.146655,-0.03301 0.295597,-0.05443 0.444934,-0.07286 0.149336,-0.01843 0.299234,-0.03394 0.448034,-0.05529 0.127934,-0.0071 0.255018,-0.0081 0.380856,-0.0036 0.125837,0.0045 0.2507,0.01436 0.374654,0.02894 0.09202,0.01082 0.182801,0.02665 0.273885,0.04237 z" />
    <path
       id="path6"
       style="fill:#0086ff;fill-opacity:1;stroke-width:0.302015"
       d="m 39.629622,41.196969 c -5.868975,0 -10.593668,4.887708 -10.593668,10.959179 v 22.25462 c 0.02857,0.0035 0.05667,0.01001 0.08527,0.01336 0.333134,0.03907 0.668322,0.06466 1.003556,0.07698 0.335234,0.01232 0.670603,0.01119 1.005624,-0.0037 0.33502,-0.01493 0.669513,-0.0434 1.002006,-0.08607 0.213026,-0.02734 0.424721,-0.06383 0.636136,-0.102643 0.211416,-0.03881 0.422333,-0.08002 0.63407,-0.11654 0.190953,-0.04376 0.380409,-0.09164 0.567924,-0.143807 0.187515,-0.05217 0.373322,-0.108369 0.557589,-0.168397 0.368533,-0.120056 0.730598,-0.255389 1.087272,-0.403619 0.356674,-0.148229 0.707871,-0.309636 1.054199,-0.481668 0.346328,-0.172034 0.687765,-0.354891 1.025261,-0.546356 0.337495,-0.191465 0.671313,-0.391683 1.001489,-0.598211 0.330176,-0.206528 0.656965,-0.419481 0.981335,-0.636701 0.648742,-0.43444 1.287248,-0.8855 1.921847,-1.336486 0.330754,-0.225596 0.651743,-0.465643 0.972034,-0.706733 0.32029,-0.241091 0.640052,-0.483595 0.967382,-0.714218 0.203724,-0.143536 0.415794,-0.298728 0.639755,-0.431417 0.11198,-0.06635 0.22706,-0.126765 0.345198,-0.177486 0.118139,-0.05072 0.239807,-0.09166 0.364836,-0.118145 0.150292,-0.03184 0.273364,-0.04597 0.382922,-0.04597 0.109559,-6e-6 0.205141,0.01404 0.299724,0.03849 0.09458,0.02445 0.188158,0.05951 0.293522,0.101039 0.105364,0.04153 0.222932,0.08937 0.364835,0.140598 1.340597,0.820869 2.167186,1.313171 2.688725,1.617148 0.521539,0.303976 0.737895,0.419648 0.856795,0.487549 0.118901,0.0679 0.140689,0.08836 0.273369,0.201007 0.132679,0.112645 0.376084,0.317712 0.93896,0.755917 0.190803,0.148543 0.384525,0.29299 0.577226,0.438901 0.17897,0.08114 0.369493,0.1676 0.51108,0.230946 0.233779,0.08644 0.46894,0.163549 0.705383,0.231479 0.236443,0.06793 0.474496,0.126254 0.713135,0.175881 0.23864,0.04963 0.477934,0.09036 0.718303,0.121887 0.240368,0.03153 0.48184,0.05425 0.72347,0.06789 0.24163,0.01364 0.48363,0.01848 0.726054,0.01443 0.242423,-0.004 0.484853,-0.01696 0.727604,-0.03849 0.24275,-0.02153 0.485511,-0.05208 0.728121,-0.09088 0.242609,-0.0388 0.485086,-0.0858 0.727087,-0.141667 0.290475,-0.06706 0.545591,-0.135491 0.781864,-0.207423 0.236274,-0.07193 0.453924,-0.147823 0.669727,-0.228806 0.431606,-0.161965 0.856074,-0.346098 1.408183,-0.569343 0.838027,-0.368138 1.665964,-0.759833 2.498039,-1.142427 0.416037,-0.191298 0.832966,-0.380541 1.252636,-0.562928 0.41967,-0.182387 0.842457,-0.358241 1.269173,-0.523368 0.160571,-0.06214 0.320653,-0.12515 0.482142,-0.184969 0.161488,-0.05982 0.323904,-0.116345 0.488859,-0.164655 0.146383,-0.04287 0.295513,-0.07568 0.444934,-0.10585 0.14942,-0.03017 0.299221,-0.05763 0.448034,-0.09035 0.177661,-0.02747 0.353015,-0.04191 0.526583,-0.04491 0.173568,-0.003 0.345553,0.0051 0.515731,0.02245 0.170178,0.01735 0.338937,0.04393 0.506429,0.07752 0.167492,0.03359 0.333685,0.07458 0.499194,0.120284 0.331019,0.0914 0.658681,0.202933 0.985987,0.318082 0.327305,0.115151 0.654184,0.233519 0.983402,0.339468 0.03092,0.0074 0.05685,0.01043 0.0863,0.01657 V 52.156148 c 0,-6.071471 -4.724694,-10.959179 -10.593669,-10.959179 z" />
    <g
       id="g14"
       transform="translate(0.196745)">
      <g
         id="g13">
        <path
           id="path10"
           style="fill:#f9f9f9;fill-opacity:1;stroke-width:0.270399"
           d="m 39.803255,49.728231 a 6.1176357,6.1176357 0 0 0 -6.117456,6.117973 6.1176357,6.1176357 0 0 0 1.274858,3.712951 5.0234404,5.0232577 0 0 1 4.842598,-3.712951 5.0234404,5.0232577 0 0 1 4.846733,3.707784 6.1176357,6.1176357 0 0 0 1.270723,-3.707784 6.1176357,6.1176357 0 0 0 -6.117456,-6.117973 z" />
      </g>
      <path
         id="circle10"
         style="fill:#212121;fill-opacity:1;stroke-width:0.173272"
         d="m 39.803255,51.619329 a 3.9202077,3.9202077 0 0 0 -3.920174,3.920175 3.9202077,3.9202077 0 0 0 0.628385,2.127519 5.0234404,5.0232577 0 0 1 3.291789,-1.228865 5.0234404,5.0232577 0 0 1 3.291272,1.229899 3.9202077,3.9202077 0 0 0 0.628902,-2.128553 3.9202077,3.9202077 0 0 0 -3.920174,-3.920175 z" />
    </g>
    <g
       id="g16"
       transform="translate(20.196745)">
      <g
         id="g15">
        <path
           id="path14"
           style="fill:#f9f9f9;fill-opacity:1;stroke-width:0.270399"
           d="m 39.803255,49.728231 a 6.1176357,6.1176357 0 0 0 -6.117456,6.117973 6.1176357,6.1176357 0 0 0 1.274858,3.712951 5.0234404,5.0232577 0 0 1 4.842598,-3.712951 5.0234404,5.0232577 0 0 1 4.846733,3.707784 6.1176357,6.1176357 0 0 0 1.270723,-3.707784 6.1176357,6.1176357 0 0 0 -6.117456,-6.117973 z" />
      </g>
      <path
         id="path15"
         style="fill:#212121;fill-opacity:1;stroke-width:0.173272"
         d="m 39.803255,51.619329 a 3.9202077,3.9202077 0 0 0 -3.920174,3.920175 3.9202077,3.9202077 0 0 0 0.628385,2.127519 5.0234404,5.0232577 0 0 1 3.291789,-1.228865 5.0234404,5.0232577 0 0 1 3.291272,1.229899 3.9202077,3.9202077 0 0 0 0.628902,-2.128553 3.9202077,3.9202077 0 0 0 -3.920174,-3.920175 z" />
    </g>
  </g>
</svg>
